# xmcd CD database file
#
# Track frame offsets:
#	182
#	18567
#	37545
#	64552
#	88712
#	104007
#	116732
#
# Disc length: 1920 seconds
#
# Revision: 0
# Processed by: cddbd v1.5.2PL0 Copyright (c) Steve Scherf et al.
# Submitted via: CDex 2.07
#
DISCID=51077e07
DTITLE=Eddy GUSTAVE - Les Grands Succes
DYEAR=1900
DGENRE=Merengue
TTITLE0=Sabina
TTITLE1=El Negrito del Batey
TTITLE2=Lololi lolai
TTITLE3=Porque Me Dejaste
TTITLE4=El Templanero
TTITLE5=Chocholito
TTITLE6=Voye Monte
EXTD=
EXTT0=
EXTT1=
EXTT2=
EXTT3=
EXTT4=
EXTT5=
EXTT6=
PLAYORDER=
